<svg xmlns="http://www.w3.org/2000/svg" width="32" height="32" viewBox="0 0 32 32">
  <g fill-rule="evenodd" transform="translate(2 5.5)">
    <path d="M17.5 19.25c0-4.148-3.526-6.125-7.875-6.125-4.35 0-7.875 1.977-7.875 6.125H17.5zm1.75 0c0 .966-.784 1.75-1.75 1.75H1.75C.784 21 0 20.216 0 19.25c0-5.004 4.04-7.875 9.625-7.875s9.625 2.87 9.625 7.875z"/>
    <path d="M6.125 5.252v2.62c0 1.935 1.567 3.503 3.5 3.503 1.93 0 3.5-1.568 3.5-3.502v-2.62c0-1.935-1.567-3.503-3.5-3.503-1.93 0-3.5 1.568-3.5 3.502zm-1.75 0C4.375 2.352 6.728 0 9.625 0c2.9 0 5.25 2.352 5.25 5.252v2.62c0 2.9-2.353 5.253-5.25 5.253-2.9 0-5.25-2.352-5.25-5.252v-2.62z"/>
    <rect width="1.75" height="10.5" x="21.875" y="4.375" rx=".875"/>
    <rect width="1.75" height="10.5" x="21.875" y="4.375" transform="rotate(90 22.75 9.625)" rx=".875"/>
  </g>
</svg>
