<svg viewBox="0 0 32 32" width="32" height="32" xmlns="http://www.w3.org/2000/svg">
  <path transform="translate(2.000000, 1.000000)" d="M24.3496597,9.88322937 C22.7905668,7.61011118 20.3740244,7.29953079 19.5248295,7.27476691 C17.4952228,7.0611784 15.526494,8.48922907 14.4926018,8.48922907 C13.4380731,8.48922907 11.8459616,7.29540348 10.1300309,7.33048564 C7.92191781,7.36453599 5.85619712,8.64297153 4.7232494,10.6282096 C2.38512598,14.6760728 4.12891617,20.6245643 6.36901589,23.8964925 C7.48958166,25.4989222 8.79897205,27.2881128 10.5128392,27.2241395 C12.1895606,27.1560388 12.8158805,26.1561969 14.8392962,26.1561969 C16.844139,26.1561969 17.4322813,27.2241395 19.1801988,27.1838982 C20.9797077,27.1560388 22.1126554,25.5752775 23.1940117,23.9573704 C24.4889565,22.1217475 25.0089981,20.3119202 25.0296346,20.2190557 C24.9883615,20.2056419 21.5358633,18.8869651 21.5007811,14.9020433 C21.4708581,11.57646 24.2237766,9.95855289 24.3496597,9.88322937 L24.3496597,9.88322937 Z M17.0495121,5.12237262 C17.9513301,3.99458405 18.5683636,2.46025505 18.3970801,0.903225806 C17.091817,0.961008205 15.4594642,1.80607576 14.5194685,2.90910045 C13.6878147,3.88108291 12.9448982,5.47422614 13.1368183,6.97244115 C14.6030466,7.08181497 16.1084845,6.2326201 17.0495121,5.12237262 L17.0495121,5.12237262 Z" />
</svg>
