<svg xmlns="http://www.w3.org/2000/svg" width="32" height="32" viewBox="0 0 32 32">
  <path fill-rule="evenodd" d="M5.268 17.338L16.356 6.25c2.13-2.13 5.583-2.13 7.714 0 2.13 2.13 2.13 5.583 0 7.714L12.017 26.017c-1.33 1.33-3.49 1.33-4.82 0-1.332-1.33-1.332-3.49 0-4.822L17.32 11.07c.53-.53 1.4-.53 1.93 0s.53 1.4 0 1.93l-9.16 9.16 1.445 1.446 9.16-9.16c1.33-1.33 1.33-3.49 0-4.822-1.33-1.33-3.49-1.33-4.82 0L5.75 19.75c-2.13 2.13-2.13 5.582 0 7.713 2.13 2.13 5.583 2.13 7.714 0L25.517 15.41c2.93-2.93 2.93-7.675 0-10.607-2.932-2.93-7.676-2.93-10.607 0L3.82 15.893l1.448 1.445z"/>
</svg>
