<svg xmlns="http://www.w3.org/2000/svg" width="32" height="32" viewBox="0 0 32 32">
  <path fill-rule="evenodd" d="M4.836 11.387c6.657-4.19 15.313-4.07 21.88.508.12.084.235.177.344.275 2.28 1.587 3.794 4.55 1.847 6.64-1.975 2.116-3.723 2.848-6.057 1.32-2.333-1.525-3.668-5.015-1.69-7.135.347-.372.68-.69 1.003-.95l-1.916-.68c-3.56-1.025-7.378-.883-10.867.378l-1.222.463c2.568 1.697 3.406 4.697 1.437 6.81-1.978 2.12-3.774 2.304-6.105.734-2.145-1.445-2.61-4.557-1.26-6.347.03-.064.074-.123.134-.175l.034-.03c.072-.08.147-.157.227-.23.815-.75 1.485-1.328 2.21-1.58z"/>
</svg>
