<svg xmlns="http://www.w3.org/2000/svg" width="32" height="32" viewBox="0 0 32 32">
  <path fill-rule="evenodd" d="M5.68 10.617c-.022-.145-.032-.29-.035-.436-.39-2.73.737-5.85 3.58-5.85 2.882 0 4.6.78 5.074 3.51.47 2.74-1.17 6.08-4.05 6.08-.51 0-.96-.02-1.38-.08l.803 1.86c1.672 3.288 4.366 5.97 7.652 7.654l1.166.577c-.506-3.02 1.11-5.667 3.983-5.667 2.885 0 4.24 1.18 4.68 3.942.437 2.765-1.167 5.446-3.615 5.26-.075-.006-.147-.01-.22-.018-.047.01-.1.01-.153.007-.28-.03-.56-.06-.84-.1-.264-.035-.522-.077-.77-.13C13.31 25.68 6.862 19 5.67 10.63z"/>
</svg>
