<svg xmlns="http://www.w3.org/2000/svg" width="32" height="32" viewBox="0 0 32 32">
  <path fill-rule="evenodd" d="M18.452 13.525c1.35 1.364 1.35 3.637 0 5-1.35 1.364-3.603 1.364-4.954 0-1.35-1.363-1.35-3.636 0-5 1.4-1.414 3.603-1.414 4.954 0zm3.904-3.94l-2.102 2.122c1.15 1.162 1.75 2.677 1.75 4.293s-.6 3.13-1.75 4.293l2.102 2.12c1.7-1.716 2.652-3.99 2.652-6.413 0-2.424-.95-4.697-2.652-6.414zm-12.712 0c-1.7 1.718-2.652 3.99-2.652 6.415 0 2.424.95 4.697 2.652 6.414l2.102-2.12c-1.15-1.163-1.75-2.678-1.75-4.294 0-1.616.6-3.13 1.75-4.293l-2.102-2.12zM8.194 8.12L6.09 6c-5.454 5.505-5.454 14.495 0 20l2.103-2.12c-4.254-4.345-4.254-11.415 0-15.76zM25.908 6l-2.103 2.12c4.304 4.345 4.304 11.365 0 15.708l2.102 2.12c5.454-5.453 5.454-14.443 0-19.948z"/>
</svg>
