<svg xmlns="http://www.w3.org/2000/svg" width="32" height="32" viewBox="0 0 32 32">
  <g fill-rule="evenodd">
    <path d="M16.198 19.44c-3.166 0-5.536-1.225-6.145-1.37-.897-.21-.943.315-.943.665 0 3.457 3.113 5.92 6.89 5.92 3.777 0 6.89-2.463 6.89-5.92 0-.35-.046-.875-.943-.664-.608.147-2.584 1.37-5.75 1.37zm4.068-9.262c1.123 0 2.034 1.205 2.034 2.69 0 1.487-.91 2.692-2.034 2.692-1.124 0-2.035-1.205-2.035-2.69 0-1.487.914-2.692 2.038-2.692m-8.533.004c1.124 0 2.034 1.204 2.034 2.69 0 1.487-.91 2.69-2.035 2.69-1.123 0-2.034-1.203-2.034-2.69 0-1.486.91-2.69 2.035-2.69"/>
    <path d="M16 28.133c6.7 0 12.133-5.432 12.133-12.133C28.133 9.3 22.7 3.867 16 3.867 9.3 3.867 3.867 9.3 3.867 16 3.867 22.7 9.3 28.133 16 28.133zM16 30C8.268 30 2 23.732 2 16S8.268 2 16 2s14 6.268 14 14-6.268 14-14 14z"/>
  </g>
</svg>
