<svg xmlns="http://www.w3.org/2000/svg" width="32" height="32" viewBox="0 0 32 32">
  <g fill-rule="evenodd">
    <path d="M6.49 19.66l20.32-7.024c.39-.136.655-.502.655-.916 0-.414-.264-.78-.656-.916L5.83 3.554c-.297-.103-.626-.057-.883.122-.26.182-.416.478-.416.794v22.65c0 .538.44.97.98.97s.978-.432.978-.97v-7.46zm-.955-.73V4.51l20.863 7.21-20.863 7.21zM6.49 5.836l17.026 5.885L6.49 17.61V5.838zm-1-1.404V19.01l21.087-7.288L5.49 4.43z"/>
    <path d="M9.19 7.8c-.272-.095-.573-.053-.81.112-.237.166-.38.437-.38.728v6.17c0 .29.143.562.38.728.152.106.332.162.516.162.1 0 .2-.017.294-.05l8.93-3.085c.358-.124.6-.46.6-.84 0-.38-.242-.716-.6-.84L9.19 7.8zm.602 2.09l5.306 1.835-5.306 1.833V9.89z"/>
  </g>
</svg>
