<svg xmlns="http://www.w3.org/2000/svg" width="32" height="32" viewBox="0 0 32 32">
  <g fill-rule="evenodd" transform="translate(2.5 2)">
    <path d="M3.97 23.067c.675-2 1.365-4.002 2.03-5.87L6.43 16c1.073-2.96 1.943-5.16 2.49-6.267 2.128.22 4.04 1.573 5.55 3.705 1.127 1.593 1.87 3.52 1.915 4.354-.726.5-2.938 1.592-5.947 2.92-.353.157-.717.317-1.09.48-1.683.73-3.488 1.49-5.293 2.23l-.238.1.152-.453zm-3.663 4.19l2.148-.86c.122-.047.35-.14.668-.268l1.756-.72c1.81-.75 3.63-1.51 5.33-2.25.37-.16.74-.33 1.1-.48 3.95-1.75 6.26-2.91 6.91-3.64l.17-.2.06-.25c.35-1.36-.62-4.14-2.23-6.41-2.03-2.86-4.76-4.65-7.94-4.65H7.7l-.317.5c-.613.98-1.628 3.48-2.983 7.23-.143.39-.288.79-.435 1.2-.67 1.88-1.364 3.89-2.043 5.9-.237.7-.456 1.35-.65 1.94l-.246.74-.72 2.19z"/>
    <path d="M6.502 9.99c-.005.476.123 1.18.488 2.076.565 1.383 1.57 2.863 3.107 4.39.198.196.4.382.604.56 2.35 2.02 4.83 2.593 6.91 2.36.15-.015.26-.033.33-.048l-.43-2.11c-.01.002-.05.01-.13.018-.53.06-1.21.034-1.97-.144-1.12-.26-2.22-.803-3.27-1.707-.16-.143-.33-.295-.49-.456-1.33-1.33-2.17-2.57-2.63-3.68-.25-.63-.33-1.05-.32-1.23l-2.16-.04z"/>
    <path d="M8.657 5.626c.062-.183.185-.477.35-.763.265-.46.432-.578.492-.542.57.35 1.3 1.44 1.58 2.75.4 1.91-.1 4.13-1.79 6.62l1.07.73c3.37-4.97 2.39-9.62-.2-11.18-.93-.56-1.7-.01-2.29 1.01-.22.37-.37.74-.46 1l1.22.41zm15.288 7.524c-.182-.03-.505-.077-.937-.122-1.41-.147-2.886-.174-4.276-.005-.546.067-1.064.163-1.547.29-1.116.297-2.13.822-3.034 1.508-.5.39-.95.8-1.32 1.21-.23.26-.38.45-.47.57l.8.56c.07-.09.2-.25.4-.47.34-.37.74-.74 1.2-1.09.81-.61 1.71-1.08 2.7-1.34.44-.12.91-.2 1.42-.26 1.31-.16 2.72-.13 4.06.01.41.05.71.09.88.12l.168-.95z"/>
    <ellipse cx="15.006" cy="3.304" rx=".819" ry=".826"/>
    <ellipse cx="19.102" cy="1.652" rx=".819" ry=".826"/>
    <ellipse cx="25.655" cy="16.518" rx=".819" ry=".826"/>
    <ellipse cx="22.378" cy="18.996" rx=".819" ry=".826"/>
    <ellipse cx="24.017" cy="23.951" rx=".819" ry=".826"/>
    <ellipse cx="17.463" cy="22.3" rx=".819" ry=".826"/>
    <ellipse cx="1.899" cy="12.389" rx=".819" ry=".826"/>
    <path d="M3.097 5.202c.92-.51 1.185-.718 1.185-1.28 0-.54-.35-.842-1.127-1.275-.098-.055-.097-.054-.378-.205-.62-.334-.896-.527-.944-.64-.004-.01-.002-.043.03-.118.06-.15.203-.34.4-.54.195-.2.392-.36.516-.45l-.64-.872c-.17.12-.41.32-.66.567-.28.29-.5.58-.63.88-.13.32-.15.64-.02.95.19.44.53.68 1.42 1.16.27.14.27.14.36.19.4.22.58.37.58.33 0-.06-.19.09-.63.33-.46.25-.64.37-.83.55-.36.34-.48.78-.2 1.22.35.54.77.58 2.09.48l.07-.007c.82-.06 1.14-.013 1.16.04.03.1.02.26-.05.48-.08.223-.22.476-.4.74-.2.28-.39.51-.52.64l.78.743c.045-.04.114-.12.2-.22.144-.17.29-.35.423-.55.23-.33.415-.66.53-.99.15-.434.18-.85.04-1.22-.286-.75-.85-.83-2.245-.73h-.07c-.443.03-.74.035-.915.03.1-.066.236-.146.446-.26zm18.56 2.1l-.096-.05c-1.36-.72-2-.898-2.61-.296-.43.424-.57 1.054-.51 1.825.03.38.1.77.2 1.16.08.3.16.54.21.69l1.02-.37c-.04-.11-.11-.31-.17-.57-.08-.33-.14-.66-.16-.96-.03-.49.04-.83.2-.98.09-.09.49.03 1.35.48l.1.05c1.38.74 1.83.89 2.427.51.47-.3.54-.79.328-1.29-.113-.27-.254-.48-.62-.95-.384-.505-.52-.76-.53-.744.01-.02.4-.103 1.26-.16l.11-.01c1.14-.074 1.625-.165 2.02-.53.42-.383.477-.95.317-1.62-.06-.25-.152-.515-.27-.782-.122-.29-.25-.52-.335-.67l-.93.55c.068.11.17.31.277.55.09.218.166.42.21.61.08.33.06.526 0 .58-.124.115-.523.19-1.36.247l-.11.01c-1.46.098-1.9.19-2.17.795-.245.55-.06.89.66 1.83.287.37.41.543.48.69-.17-.03-.55-.192-1.24-.556z"/>
  </g>
</svg>
