<svg xmlns="http://www.w3.org/2000/svg" width="32" height="32" viewBox="0 0 32 32">
  <g fill-rule="evenodd">
    <path d="M24.313 19.135s.752.372 1.068 0c.23-.27.43-.537.59-.8.26-.44.41-.86.39-1.29V16.9l-.05-.14c-.76-1.97-2.87-3.04-5.87-3.51-1.49-.23-3.05-.29-4.5-.25l.52-4.54-13.4-.053L5.27 28h3.763l.715-8.865h14.565zm-9.894-8.87l-.54 4.7 1.1-.1c.08-.006.25-.02.49-.03 1.48-.078 3.13-.04 4.66.2 2.28.356 3.82 1.09 4.37 2.174-.02.05-.06.12-.11.2-.1.16-.24.35-.41.55-.14.16-.29.32-.44.46H8.69l-.71 7.67H6.844L5.057 10.22l9.362.04z"/>
    <path d="M16.95 6.19l.492-1.31-4.805-1.81-1.57 6.026 1.354.353 1.18-4.52M10.18 22.5l-.004-.874s-.53-.47-.53-1.466c0-.995 1.266-1.936 1.266-1.936l-.48-.31c.01.005-.03-.03-.08-.106-.107-.153-.173-.353-.173-.627 0-.57 2.93-2.3 5.34-2.45l-.11-1.79c-3.24.2-7.03 2.44-7.03 4.26 0 .65.18 1.21.49 1.65.04.06.08.11.12.16l-.15 1.08-.56 2.24.63.67v5h15.8c1.68 0 2.4-.97 2.4-2.47 0-.426-.04-.855-.1-1.27l-.04-.26c.04-.125.1-.272.14-.44.16-.55.25-1.16.25-1.817 0-.15-.01-.305-.03-.46-.07-.577-.26-1.17-.52-1.76-.2-.44-.39-.786-.53-1l-1.6.19c.09.143.1.42.45.81.13.146.23.18.42.925.18.746.09 1.134.09 1.183 0 .477-.16 1.028-.28 1.42-.07.226-.13.377-.16.436l-.15.3.074.32c.016.08.045.22.074.42.05.34.08.68.08 1.01 0 .58-.01.59-.61.59-.54 0-3.227.01-7.38.02h-.53c-1.554.01-3.19.02-4.805.02h-1.81c-1.168 0 0-3.64 0-3.64z"/>
    <path d="M8.735 18.183c-.11.173-.264.446-.417.796-.237.53-.397 1.09-.438 1.66-.006.09-.01.18-.01.26 0 1.82 1.345 3.28 3.19 3.28.218 0 .585 0 1.22.02.105 0 1.517.04 2.003.05 1.344.03 2.48.05 3.572.06 3.76.04 6.14-.05 6.972-.36.39-.14.7-.28.95-.42C26.76 23 27 22.33 27 20.91v-.078c0-1.387-.567-2.49-1.43-3.263-.422-.38-2.677-.48-7.77-.55-2.29-.03-4.615-.03-6.877-.03l-.545.01c-.424 0-.817.23-1.187.61-.2.2-.36.41-.45.57l.01-.01zm1.236 1.072c.17-.174.32-.268.41-.268.04 0 .42 0 .55-.002 2.26-.005 4.58.003 6.87.034 2 .02 3.68.07 4.93.13.71.03 1.27.07 1.67.12.21.02.68.3.68.3l.58.53c-.07-.07 0 .88 0 .92 0 .7-.15.99-2.45 1.49-4.2.5-5.2.7-11.08.14-2.3-.76-2.64-1.48-2.91-2.03-.27-.55.66-1.26.78-1.38z"/>
  </g>
</svg>
