<svg xmlns="http://www.w3.org/2000/svg" width="32" height="32" viewBox="0 0 32 32">
  <g fill-rule="evenodd">
    <path d="M19.636 10.648l-.9.9h.9v-.9zm0-.9v-5.92H9.19v8.79H4.144V25.81h1.8V14.417h5.044V5.63h6.846v7.067h1.8v-1.15h6.126v14.265h1.8V9.748h-7.926z"/>
    <path d="M12.206 6.914h1.44V8.37h-1.44zm2.882 0h1.44V8.37h-1.44zM12.206 9.83h1.44v1.456h-1.44zm2.882 0h1.44v1.456h-1.44zm-7.926 5.827h1.44v1.457h-1.44zm15.852 0h1.44v1.457h-1.44zm0-2.914h1.44V14.2h-1.44zM8.604 24.4h2.88v2.914h-2.88V24.4zm11.53 0h2.88v2.914h-2.88V24.4zm-8.65.73h8.648v-.73h-8.647v.73zm-3.557-.73h.766v-.73h-.766v.73zm15.087 0h.766v-.73h-.766v.73zm-15.087-.774v-3.46c0-.73 2.14-.82 2.14-.82v-1.458c0-1.09 1.598-4.348 3.625-4.348h4.278c1.982 0 3.535 2.984 3.535 4.348v1.458s2.185-.137 2.185 1.138v3.142h-4.256v-.73h-7.14v.73H7.927zm3.87-4.69h7.973s0-3.55-1.892-3.55H14.05c-2.342 0-2.252 3.55-2.252 3.55zm-1.393 3.643c.398 0 .72-.33.72-.73 0-.404-.322-.73-.72-.73-.398 0-.72.326-.72.73 0 .4.322.73.72.73zm10.81 0c.397 0 .72-.33.72-.73 0-.404-.323-.73-.72-.73-.4 0-.722.326-.722.73 0 .4.323.73.72.73z"/>
  </g>
</svg>
