<svg xmlns="http://www.w3.org/2000/svg" width="32" height="32" viewBox="0 0 32 32">
  <g fill-rule="evenodd" transform="translate(4 3)">
    <path d="M11.208 8.183c-.318.507-.636 1.018-.933 1.5l-.054.09c-.52.853-.92 1.51-1.13 1.903-.22.4-.58 1.19-1.043 2.28l-.106.25c-.255.602-.522 1.246-.785 1.89l-.206.508-5.823-.618-.733 3.136 7.998.995 3.33-3.72 3.017 2.18-3.826 5.574 2.958 1.51 4.53-7.86-4.658-4.38.114-.192c.232-.402.475-.803.716-1.176.142-.213.278-.42.41-.6.394-.55.75-.91.76-.91.023 0 .246.334.544 1.016l.125.29.128.283c.1.22.185.384.27.523.11.175.226.307.368.4.36.234 1.246.26 2.92.203.35-.012.72-.03 1.136-.05l.95-.05c.29-.016.45-.022.52-.022.704 0 .885-.516.774-1.14-.014-.06-.027-.123-.046-.2-.04-.17-.046-.203-.046-.195 0-.3-.156-.425-.37-.507-.07-.026-.142-.045-.234-.06-.133-.026-.31-.048-.56-.07-.063-.008-1.328-.115-1.736-.158-1.177-.123-1.995-.325-2.03-.4-.414-.898-1.734-3.036-2.33-3.738-.618-.727-2.38-1.414-3.84-1.674-2.04-.54-3.114-.358-4.303.516-.13.096-.664.507-.558.426-.148.113-.3.24-.456.386-.246.227-.5.488-.76.778-.314.346-.62.715-.908 1.083-.175.223-.304.396-.377.496l-.57.793h2.73l.147-.244c.547-.917 2.17-1.78 3.35-1.78.452 0 .722.106.876.27-.044.16-.14.31-.25.483z"/>
    <ellipse cx="18.071" cy="3.116" rx="2.929" ry="2.778"/>
  </g>
</svg>
