<svg xmlns="http://www.w3.org/2000/svg" width="32" height="32" viewBox="0 0 32 32">
  <g fill-rule="evenodd">
    <path d="M15.927 22.16c-3.442 0-5.126-1.257-5.74-2.515.48.325 2.048.703 5.74.703s5.26-.378 5.74-.703c-.613 1.258-2.298 2.516-5.74 2.516m6.02-3.76c-.608.144-1.396.61-5.947.61-4.55 0-5.338-.466-5.947-.61-.897-.212-.943.314-.943.664 0 3.457 3.113 5.92 6.89 5.92 3.777 0 6.89-2.463 6.89-5.92 0-.35-.046-.875-.943-.664m-1.68-8.222c1.122 0 2.033 1.205 2.033 2.69 0 1.487-.91 2.692-2.034 2.692-1.124 0-2.035-1.205-2.035-2.69 0-1.487.914-2.692 2.038-2.692m-8.533.004c1.124 0 2.034 1.204 2.034 2.69 0 1.487-.91 2.69-2.035 2.69-1.123 0-2.034-1.203-2.034-2.69 0-1.486.91-2.69 2.035-2.69"/>
    <path d="M16 28.4c6.848 0 12.4-5.552 12.4-12.4 0-6.848-5.552-12.4-12.4-12.4C9.152 3.6 3.6 9.152 3.6 16c0 6.848 5.552 12.4 12.4 12.4zm0 1.6C8.268 30 2 23.732 2 16S8.268 2 16 2s14 6.268 14 14-6.268 14-14 14z"/>
  </g>
</svg>
