<svg xmlns="http://www.w3.org/2000/svg" width="32" height="32" viewBox="0 0 32 32">
  <g fill-rule="evenodd">
    <path d="M3.965 5.76h10.202v-1.6H3.965m0 4h10.202v-1.6H3.965"/>
    <path d="M8.366 6.596v8.684h1.4V6.596m9.254 8.65c1.324-.43 2.426-1.623 2.116-2.58-.31-.956-1.918-1.314-3.243-.883-1.324.43-2.146 1.555-1.835 2.512.31.956 1.636 1.383 2.96.952z"/>
    <path d="M21.183 5.045l-.89.674c.08.02.238.07.446.15.14.06.29.12.44.2V5.04zm.58 1.358c.683.442 1.136.962 1.284 1.546.212.84.115 1.68-.18 2.46-.108.28-.214.49-.274.58l1.184.75c.108-.18.255-.46.4-.85.388-1.03.517-2.16.227-3.3-.248-.98-.928-1.77-1.882-2.38-.69-.45-1.373-.72-1.85-.86l-.89-.25v9.03h1.4V6.07c.2.1.394.208.58.328zM8.008 21.51l-.33-.417c-.11-.138-.21-.28-.3-.422-.09-.14-.167-.28-.226-.43-.06-.15-.09-.29-.09-.44 0-.36.12-.62.357-.79.23-.17.49-.25.76-.25.34 0 .62.11.82.32.2.21.3.46.3.74 0 .21-.04.41-.13.58-.08.17-.19.33-.32.47-.13.14-.27.26-.43.38-.16.11-.3.21-.44.305zm3.545 6.076h1.52l-1.903-2.23c.1-.22.187-.417.26-.587.073-.18.135-.35.185-.52.05-.18.09-.37.123-.58.032-.21.062-.46.09-.76h-1.11c-.027.5-.132 1.02-.315 1.53l-1.766-2.17c.238-.14.466-.3.685-.47.22-.17.415-.37.59-.58.172-.22.31-.45.41-.7.1-.26.15-.53.15-.83 0-.34-.066-.63-.2-.88-.13-.26-.307-.47-.526-.64-.22-.17-.472-.3-.76-.38-.287-.09-.58-.13-.883-.13-.356 0-.67.06-.944.17-.28.11-.51.26-.7.45-.19.19-.33.4-.43.65-.1.24-.15.5-.15.77 0 .25.03.47.09.67.06.2.14.39.24.57.1.18.22.35.35.53.12.17.26.36.39.55-.31.162-.61.34-.89.53s-.52.4-.73.63c-.207.232-.37.5-.49.793-.12.292-.188.634-.188 1.02 0 .206.035.46.103.764.07.307.213.6.43.89.22.28.53.53.933.73.4.2.93.304 1.584.304.54 0 1.06-.117 1.57-.35.51-.23.906-.574 1.2-1.035l1.04 1.23zm-3.93-4.776l2.246 2.727c-.24.36-.54.646-.89.858-.35.212-.75.32-1.2.32-.24 0-.47-.043-.7-.126-.23-.09-.42-.2-.6-.34-.18-.15-.32-.32-.42-.53-.11-.21-.16-.44-.16-.69 0-.3.04-.56.13-.77.09-.22.22-.42.37-.59s.34-.34.54-.47c.21-.14.42-.28.65-.41zm15.052-5.52L14.88 28.177h1.915l7.78-10.885m-10.005 2.56c0 .4.04.78.124 1.135.086.368.226.694.422.975.202.29.47.52.796.685.328.166.72.247 1.175.247.45 0 .84-.09 1.163-.275.31-.18.57-.42.774-.71.2-.29.344-.62.43-.99.083-.36.124-.73.124-1.12 0-.4-.036-.78-.11-1.13-.075-.38-.21-.71-.4-.99-.197-.29-.458-.52-.78-.69-.325-.18-.726-.26-1.2-.26-.467 0-.867.08-1.197.26-.32.17-.59.41-.79.71-.19.29-.33.62-.41.99-.08.36-.11.73-.11 1.13zm1.626-.027c0-.2.013-.413.04-.637.023-.206.073-.394.147-.565.07-.158.164-.287.284-.39.097-.085.233-.13.42-.13.196 0 .333.045.424.126.12.1.21.23.28.38.07.17.12.36.14.56.02.22.04.43.04.63s-.01.41-.04.64c-.02.21-.07.4-.15.57-.07.15-.16.28-.28.38-.09.08-.24.12-.44.12-.18 0-.32-.04-.41-.13-.11-.11-.2-.23-.27-.39-.07-.17-.11-.36-.13-.57-.02-.23-.03-.44-.03-.63zm4.416 5.185c0 .402.04.78.124 1.135.086.37.228.693.424.97.202.286.468.51.794.676.328.17.72.25 1.176.25.45 0 .837-.08 1.16-.26.312-.17.572-.41.776-.7.2-.28.344-.61.43-.99.083-.36.124-.73.124-1.11 0-.4-.036-.77-.108-1.13-.076-.37-.21-.7-.402-.98-.196-.29-.457-.52-.778-.69-.326-.17-.727-.25-1.202-.25-.467 0-.866.09-1.196.27-.326.18-.59.42-.792.72-.195.29-.333.623-.414.996-.077.36-.116.74-.116 1.138zm1.627-.027c0-.2.01-.412.03-.636.02-.207.07-.395.15-.566.07-.15.16-.28.28-.39.09-.08.23-.12.42-.12.19 0 .33.05.42.13.11.11.2.23.27.39.07.17.11.36.13.57.02.23.03.44.03.63 0 .2-.02.42-.04.65-.03.21-.08.4-.15.57-.07.16-.17.29-.28.39-.1.08-.24.12-.44.12-.19 0-.32-.04-.41-.12-.12-.1-.21-.23-.28-.39-.07-.17-.12-.36-.14-.56-.02-.224-.038-.434-.038-.63z"/>
  </g>
</svg>
