<svg viewBox="0 0 32 32" width="32" height="32" xmlns="http://www.w3.org/2000/svg">
  <path d="M20.148 12.0183l-2.919-6.8768c-.6476-1.5255-1.699-1.52-2.345.0042l-2.919 6.887-7.483.635c-1.649.14-1.971 1.1325-.7183 2.2176L9.446 19.808l-1.7067 7.3164c-.3762 1.6123.477 2.2206 1.8854 1.3704l6.4317-3.882 6.4318 3.882c1.4174.8555 2.261.2318 1.8896-1.3704l-1.6964-7.3164 5.672-4.9227c1.25-1.085.916-2.0805-.7226-2.2218l-7.483-.6453zM16.0563 21.89l-5.4746 3.3053 1.456-6.2318-4.834-4.1934 6.3774-.5532 2.4752-5.8677 2.49 5.8824 6.3772.5533-4.834 4.1933 1.456 6.2318-5.4892-3.3197z" />
</svg>
