<svg xmlns="http://www.w3.org/2000/svg" width="32" height="32" viewBox="0 0 32 32">
  <path fill-rule="evenodd" d="M19.96 11.71l-2.784-6.56c-.65-1.533-1.704-1.534-2.357.004l-2.79 6.57-7.126.606c-1.666.14-1.993 1.14-.726 2.24l5.41 4.687-1.623 6.968c-.38 1.63.47 2.25 1.903 1.384l6.13-3.7 6.125 3.7c1.43.86 2.288.244 1.91-1.388l-1.617-6.968 5.4-4.688c1.263-1.097.94-2.1-.728-2.245l-7.13-.614zM16 21.275l-5.304 3.202 1.41-6.037-4.682-4.063 6.178-.536L16 8.16l2.412 5.7 6.178.535-4.683 4.063 1.41 6.037L16 21.275z"/>
</svg>
