<svg viewBox="0 0 24 24" width="24" height="24" xmlns="http://www.w3.org/2000/svg">
  <g transform="translate(0, 0.5)">
    <path d="M22.5 20.5h-21c-.276 0-.5-.224-.5-.5V3c0-.276.224-.5.5-.5h21c.276 0 .5.224.5.5v17c0 .276-.224.5-.5.5zM2 19.5h20v-16H2v16z" />
    <path d="M14.5 23.5c-.128 0-.256-.05-.354-.146-1.173-1.173-1.47-7.237-.835-9.854H10c-.276 0-.5-.224-.5-.5 0-4.254 2.812-10.52 4.646-12.354.195-.195.512-.195.707 0s.195.512 0 .707c-1.61 1.61-4.135 7.202-4.34 11.146H14c.17 0 .33.086.422.23.092.145.104.326.03.48-.875 1.872-.436 8.597.402 9.435.195.195.195.512 0 .707-.098.1-.226.148-.354.148z" />
    <path d="M12 17.5c-1.454 0-4.102-.402-7.172-1.53-.26-.096-.392-.383-.297-.643.096-.26.384-.39.643-.297 2.95 1.085 5.52 1.47 6.827 1.47s3.877-.385 6.828-1.47c.26-.093.547.04.642.298.095.26-.038.546-.297.642-3.07 1.128-5.72 1.53-7.173 1.53zM7.5 8.5c-.276 0-.5-.224-.5-.5V6c0-.276.224-.5.5-.5s.5.224.5.5v2c0 .276-.224.5-.5.5zM15.5 8.5c-.276 0-.5-.224-.5-.5V6c0-.276.224-.5.5-.5s.5.224.5.5v2c0 .276-.224.5-.5.5z" />
  </g>
</svg>
