<svg xmlns="http://www.w3.org/2000/svg" width="32" height="32" viewBox="0 0 32 32">
  <g fill-rule="evenodd">
    <path d="M27.877 16.782c2.128.625 1.764 2.17 1.757 3.204h-5.308c-.19-.626-.663-1.21-1.79-1.54l-.355-.107c-1.49-.44-2.28-.67-2.49-1.14-.05-.17-.03-.36.46-.54 1.6-.47 2.41-.71 2.6-1.31h.1l-.08-.08c-.79-.76-1.39-2.247-1.39-3.446 0-1.695 1.3-2.81 2.53-2.81s2.46 1.205 2.46 2.902c0 1.2-.67 2.635-1.492 3.37.17.69 1.097.918 3.01 1.48z"/>
    <path d="M24.212 23.88H7.722c-.01-.164-.02-.33-.04-.524-.052-.65-.103-1.322.08-1.935.222-.71.8-1.35 2.137-1.74l.51-.16c2.35-.67 3.6-1.05 4.02-1.93l.13-.22-.01-.282c-.03-.02-.05-.04-.09-.087-.147-.146-.288-.292-.42-.466-.91-1.16-1.56-2.946-1.56-4.424 0-1.89 1.4-3.89 3.484-3.89 1.63 0 3.384 1.612 3.384 4.023 0 1.538-.8 3.44-1.896 4.56-.07.08-.154.146-.225.215l-.13.116.04.176c.282 1.11 1.56 1.49 4.12 2.22l.53.165c1.326.39 1.954 1.03 2.23 1.74h.01c.25.69.22 1.44.19 2.14-.01.104-.01.22-.02.32z"/>
    <path d="M4.012 16.782c-2.13.625-1.762 2.17-1.757 3.204H7.56c.194-.626.663-1.21 1.792-1.54l.355-.107c1.49-.44 2.29-.67 2.496-1.14-.056-.19.047-.47-.462-.54-1.59-.47-2.4-.71-2.59-1.31h-.1c.03-.028.06-.05.08-.08.79-.76 1.39-2.247 1.39-3.446 0-1.695-1.29-2.81-2.52-2.81s-2.47 1.218-2.47 2.913c0 1.2.67 2.635 1.495 3.37-.17.693-1.096.92-3.008 1.48z"/>
  </g>
</svg>
