<svg viewBox="0 0 32 32" width="32" height="32" xmlns="http://www.w3.org/2000/svg">
  <g transform="scale(1.05)">
    <path d="M5.1347326,15.7716698 C5.1347326,14.033804 6.54300316,12.6255335 8.28086896,12.6255335 L14.2735096,12.6255335 L14.2735096,9.77902913 L8.28086896,9.77902913 C4.96993498,9.77902913 2.28822827,12.4607358 2.28822827,15.7716698 C2.28822827,19.0826038 4.96993498,21.7643105 8.28086896,21.7643105 L14.2735096,21.7643105 L14.2735096,18.9178062 L8.28086896,18.9178062 C6.54300316,18.9178062 5.1347326,17.5095356 5.1347326,15.7716698 L5.1347326,15.7716698 Z M23.2624707,9.77902913 L17.26983,9.77902913 L17.26983,12.6255335 L23.2624707,12.6255335 C25.0003365,12.6255335 26.408607,14.033804 26.408607,15.7716698 C26.408607,17.5095356 25.0003365,18.9178062 23.2624707,18.9178062 L17.26983,18.9178062 L17.26983,21.7643105 L23.2624707,21.7643105 C26.5734047,21.7643105 29.2551114,19.0826038 29.2551114,15.7716698 C29.2551114,12.4607358 26.5734047,9.77902913 23.2624707,9.77902913 L23.2624707,9.77902913 Z M11.2771893,17.26983 L20.2661503,17.26983 L20.2661503,14.2735096 L11.2771893,14.2735096 L11.2771893,17.26983 L11.2771893,17.26983 Z" transform="translate(15.771670, 15.771670) scale(-1, 1) rotate(45.000000) translate(-15.771670, -15.771670)" />
  </g>
</svg>
