<svg xmlns="http://www.w3.org/2000/svg" width="32" height="32" viewBox="0 0 32 32">
  <g fill-rule="evenodd">
    <path d="M7.373 16.56c.672 0 1.216-.544 1.216-1.215v-8.53c0-.67-.55-1.215-1.22-1.215h-.28c-.82 0-1.49.67-1.49 1.5v8.245c0 .67.54 1.215 1.21 1.215h.554z"/>
    <path d="M5.6 7.373c0 .672.543 1.216 1.215 1.216h8.53c.67 0 1.215-.55 1.215-1.22v-.56c0-.68-.544-1.22-1.215-1.22H7.1c-.828 0-1.5.66-1.5 1.49v.28z"/>
    <path d="M6.3 7.557c-.237.236-.234.623.008.865l7.7 7.7c.242.242.633.243.866.01l1.258-1.258c.236-.236.232-.623-.01-.865l-7.7-7.71c-.242-.24-.632-.248-.865-.01L6.3 7.56zm18.45 8.006c-.672 0-1.216.544-1.216 1.215v8.53c0 .67.548 1.215 1.216 1.215h.28c.824 0 1.493-.67 1.493-1.5v-8.245c0-.67-.548-1.215-1.216-1.215h-.557z"/>
    <path d="M26.523 24.75c0-.672-.543-1.216-1.215-1.216h-8.53c-.67 0-1.215.548-1.215 1.216v.557c0 .672.544 1.216 1.215 1.216h8.244c.83 0 1.5-.663 1.5-1.494v-.28z"/>
    <path d="M25.824 24.566c.237-.236.233-.623-.01-.865l-7.7-7.7c-.24-.24-.632-.24-.865-.01l-1.26 1.26c-.24.24-.23.63.01.87l7.7 7.7c.24.24.63.25.86.01l1.26-1.26z"/>
  </g>
</svg>
