<svg xmlns="http://www.w3.org/2000/svg" width="32" height="32" viewBox="0 0 32 32">
  <g fill-rule="evenodd">
    <path d="M13.667 4.8c-.774 0-1.4.627-1.4 1.406v7.455c0 .78.62 1.41 1.4 1.41.773 0 1.4-.626 1.4-1.405V6.207c0-.777-.622-1.406-1.4-1.406z"/>
    <path d="M15.067 13.667c0-.774-.627-1.4-1.406-1.4H6.21c-.777 0-1.406.62-1.406 1.4 0 .773.628 1.4 1.407 1.4h7.456c.777 0 1.407-.622 1.407-1.4z"/>
    <path d="M14.11 13.536c.388-.388.39-1.016-.008-1.414l-9.41-9.41c-.394-.394-1.03-.394-1.416-.008l-.572.572c-.39.39-.39 1.016.007 1.415l9.416 9.416c.393.393 1.03.393 1.414.007l.572-.573zM18.333 27.2c.774 0 1.4-.627 1.4-1.406V18.34c0-.777-.62-1.407-1.4-1.407-.773 0-1.4.627-1.4 1.406v7.45c0 .777.622 1.406 1.4 1.406z"/>
    <path d="M16.933 18.333c0 .774.627 1.4 1.406 1.4h7.45c.777 0 1.406-.62 1.406-1.4 0-.773-.628-1.4-1.407-1.4h-7.45c-.778 0-1.408.622-1.408 1.4z"/>
    <path d="M17.89 18.464c-.388.388-.39 1.016.008 1.414l9.41 9.41c.394.394 1.03.394 1.416.008l.572-.572c.39-.39.39-1.016-.007-1.415l-9.416-9.416c-.393-.393-1.03-.393-1.414-.007l-.572.573z"/>
  </g>
</svg>
