<svg xmlns="http://www.w3.org/2000/svg" width="32" height="32" viewBox="0 0 32 32">
  <path
    d="M19.992 9.478l-.2-.2a.743.743 0 1 1 1.052-1.051l3.154 3.154a.743.743 0 1 1-1.051 1.051l-.239-.238c-1.871 2.032-2.954 3.342-3.247 3.93-.467.934.353 1.195.038 1.976-.21.52-.676.988-1.4 1.4l-2.007-2.006c-1.805 1.573-6.288 4.927-6.288 4.927s3.353-4.482 4.927-6.288l-2.028-2.028c.423-.677.89-1.144 1.4-1.4.767-.386.824.285 1.902-.037.678-.204 2.007-1.267 3.987-3.19z"
    transform-origin="50% 50%"
    transform="scale(1.8) translate(-0.5 1)"
  />
</svg>
