<svg xmlns="http://www.w3.org/2000/svg" width="32" height="32" viewBox="0 0 32 32">
  <g transform-origin="50% 50%" transform="scale(1.4)">
    <path d="M24.887 15.818a9.068 9.068 0 1 0-18.137 0 9.068 9.068 0 0 0 18.137 0zm1.5 0c0 5.837-4.732 10.568-10.569 10.568-5.836 0-10.568-4.731-10.568-10.568S9.982 5.25 15.818 5.25c5.837 0 10.569 4.731 10.569 10.568z"/>
    <path d="M11.092 14.948a.75.75 0 0 1-1.5.015 2.707 2.707 0 1 1 5.417-.05.75.75 0 0 1-1.5.014 1.208 1.208 0 0 0-2.417.021zM18.025 14.753a.75.75 0 0 1-1.5.013 2.708 2.708 0 0 1 5.417-.049.75.75 0 0 1-1.5.015 1.209 1.209 0 0 0-2.417.02zM10.262 18.72a.75.75 0 1 1 1.239-.846c.044.066.143.196.293.37.254.296.55.592.885.868 2.21 1.824 4.667 1.846 7.483-1.206a.75.75 0 1 1 1.102 1.017c-3.392 3.677-6.75 3.647-9.54 1.346-.694-.573-1.187-1.146-1.462-1.548z"/>
  </g>
</svg>
