<svg xmlns="http://www.w3.org/2000/svg" width="32" height="32" viewBox="0 0 32 32">
  <path d="M23.597 17.378c-1.688 2.756-6.246 6.496-7.575 6.625l-.08-.002c-1.28-.127-5.837-3.867-7.526-6.623-2.275-3.715-1.845-7.708 1.55-9.038 1.444-.566 2.876-.398 4.225.303.72.374 1.331.85 1.816 1.33a7.547 7.547 0 0 1 1.816-1.33c1.348-.7 2.78-.87 4.225-.303 3.396 1.33 3.825 5.324 1.55 9.038zM18.83 21.08c1.652-1.355 3.077-2.857 3.915-4.225 1.992-3.25 1.64-6.527-1.06-7.585-1.152-.45-2.29-.317-3.4.26a6.599 6.599 0 0 0-1.829 1.42.596.596 0 0 1-.896 0 6.592 6.592 0 0 0-1.83-1.42c-1.109-.577-2.247-.71-3.398-.26-2.7 1.058-3.053 4.334-1.062 7.585.838 1.368 2.264 2.87 3.916 4.225 1.28 1.05 2.595 1.895 2.805 1.922.291-.058 1.583-.892 2.84-1.922z"/>
</svg>
