<svg xmlns="http://www.w3.org/2000/svg" width="32" height="32" viewBox="0 0 32 32">
  <path d="M7.376 11.833H4.424c-.344 0-.624.297-.624.664v6.992c0 .368.28.664.624.664h2.952c.344 0 .624-.296.624-.663v-6.993c0-.368-.28-.664-.624-.664zm18.928 3.787l2.184-2.182a1.064 1.064 0 0 0-1.504-1.506L24.8 14.114l-2.182-2.182a1.064 1.064 0 0 0-1.506 1.504l2.182 2.184-2.182 2.182a1.066 1.066 0 0 0 1.504 1.506l2.184-2.182 2.182 2.182a1.064 1.064 0 1 0 1.506-1.504l-2.182-2.184h-.002zm-9.246-9.318l-5.573 4.537a.438.438 0 0 1-.279.101h-1.34c-.256 0-.466.229-.466.512v8.997c0 .281.208.512.464.512h1.344c.1 0 .195.033.277.099l5.573 4.54c.307.249.742.009.742-.41V6.71c0-.419-.435-.659-.742-.41z"/>
</svg>
