<svg xmlns="http://www.w3.org/2000/svg" width="32" height="32" viewBox="0 0 32 32">
  <path d="M25 16a9 9 0 1 1-18.001-.001A9 9 0 0 1 25 16zm-1 0a8 8 0 1 0-16.001.001A8 8 0 0 0 24 16z"/>
  <path d="M12.783 7.896l.936.352c-1.518 4.032.57 11.126 4.858 15.615l-.724.691c-4.534-4.747-6.736-12.232-5.07-16.658zm4.641-.502l.594.805C17.392 8.66 17 9.696 17 11.5c0 2.033 1.166 3.403 4.392 5.822l.511.382c.968.724 1.51 1.147 2.072 1.63l-.653.758c-.539-.464-1.068-.876-2.018-1.587l-.512-.383C17.318 15.516 16 13.969 16 11.5c0-2.092.505-3.428 1.424-4.106zm-8.278 3.46l.708-.708c.16.161.38.454.593.88.346.693.553 1.519.553 2.474 0 .588-.025.732-.454 2.876a30.3 30.3 0 0 0-.301 1.694c-.277 1.934-.138 3.244.532 3.995l-.746.666c-.926-1.038-1.091-2.598-.776-4.802.074-.52.168-1.038.31-1.75.405-2.021.435-2.193.435-2.679 0-.795-.168-1.469-.447-2.026-.162-.324-.318-.531-.407-.62z"/>
  <path d="M7.929 16.757l-.858-.514c3.083-5.138 9.775-6.86 16.945-3.962l-.374.928c-6.74-2.725-12.9-1.14-15.713 3.548z"/>
</svg>
