<svg xmlns="http://www.w3.org/2000/svg" width="32" height="32" viewBox="0 0 32 32">
  <path
    d="M13.278 21.057a1 1 0 0 1-1.353-1.471 717.88 717.88 0 0 0 6.378-5.92c.646-.61.665-1.213.265-1.596-.441-.421-1.199-.4-1.977.304a530.453 530.453 0 0 1-2.488 2.234l-.967.866c-2.373 2.126-3.59 3.224-4.146 3.749l-.254.239a23.21 23.21 0 0 0-.286.273 12.45 12.45 0 0 0-.622.646c-1.56 1.75-1.83 3.182-.304 4.649.559.537 1.119.831 1.698.928 1.301.218 2.78-.505 4.728-2.117.208-.173.421-.354.677-.575l.64-.556c2.275-1.973 4.737-4.332 7.703-7.385 2.968-3.057 3.359-5.395 1.013-7.728-2.388-2.375-5.93-2.022-8.994.603a283.579 283.579 0 0 0-7.17 6.36 1 1 0 0 1-1.348-1.476c2.641-2.41 4.625-4.18 7.217-6.402 3.781-3.24 8.481-3.708 11.705-.503 3.251 3.234 2.659 6.782-.99 10.538-3.002 3.092-5.504 5.49-7.828 7.504l-.64.556c-.265.23-.489.42-.71.604-2.366 1.958-4.278 2.893-6.333 2.549-.99-.166-1.913-.65-2.754-1.46-2.474-2.38-1.988-4.966.197-7.42.225-.252.46-.494.72-.748l.31-.296.253-.237c.575-.543 1.791-1.64 4.166-3.768l.985-.882a2344.544 2344.544 0 0 0 2.481-2.228c1.53-1.383 3.473-1.438 4.7-.265 1.245 1.191 1.185 3.116-.275 4.494a719.617 719.617 0 0 1-6.397 5.937z"
  />
</svg>
