<svg xmlns="http://www.w3.org/2000/svg" width="32" height="32" viewBox="0 0 32 32">
  <path d="M10.235 13.333H8.39c-.215 0-.39.186-.39.415v4.37c0 .23.175.415.39.415h1.845c.215 0 .39-.185.39-.414v-4.371c0-.23-.175-.415-.39-.415M22.065 15.7l1.365-1.364a.665.665 0 0 0-.94-.941l-1.365 1.364-1.364-1.364a.665.665 0 0 0-.941.94l1.364 1.365-1.364 1.364a.666.666 0 0 0 .94.941l1.365-1.364 1.364 1.364a.664.664 0 1 0 .941-.94L22.066 15.7h-.001zM16.286 9.876l-3.483 2.836a.274.274 0 0 1-.174.063h-.838c-.16 0-.291.143-.291.32v5.623c0 .176.13.32.29.32h.84c.062 0 .122.021.173.062l3.483 2.837c.192.156.464.006.464-.256V10.132c0-.262-.272-.412-.464-.256" transform-origin="50% 50%" transform="scale(1.6)" />
</svg>
