<svg xmlns="http://www.w3.org/2000/svg" width="32" height="32" viewBox="0 0 32 32">
  <path
    d="M25.174 24.567c.557.809 1.824.415 1.824-.567 0-7.241-3.582-11.185-10.454-11.527V8a1 1 0 0 0-1.642-.766l-9.544 8a1 1 0 0 0 0 1.532l9.544 8A1 1 0 0 0 16.544 24v-4.365c3.434-.1 6.28 1.517 8.63 4.932zm-9.74-6.857a1 1 0 0 0-.89.994v3.153L7.557 16l6.987-5.857v3.305a1 1 0 0 0 1 1c5.296 0 8.291 2.091 9.175 6.469-2.596-2.517-5.709-3.603-9.285-3.207z"
    transform-origin="50% 50%"
    transform="scale(1.2)"
  />
</svg>
