<svg xmlns="http://www.w3.org/2000/svg" width="32" height="32" viewBox="0 0 32 32">
  <path d="M12.855 11.997c-.425.312.258 2.424 1.795 4.518 1.44 1.963 3.618 3.18 4.15 2.79.313-.23-.445-1.891-2.17-4.243-1.538-2.095-3.348-3.378-3.775-3.065zm4.58 2.474c2.183 2.974 3.038 4.847 1.957 5.64-1.15.844-3.819-.647-5.548-3.005-1.864-2.538-2.692-5.1-1.58-5.915 1.112-.817 3.308.74 5.172 3.28h-.001z"/>
  <path d="M18.904 19.246l.385.924-11.177 4.656c-.594.248-1.197-.339-.963-.937l4.669-12.144.933.358-4.444 11.559 10.597-4.416zm1.121-5.122l-.885.466a6.694 6.694 0 0 1-.315-.716 5.467 5.467 0 0 1-.266-.917c-.179-.957.04-1.719.865-1.993.667-.222 1.355-.054 2.427.431l.346.16c1.265.592 1.697.702 1.896.502.192-.192.173-.872-.1-1.832a12.791 12.791 0 0 0-.363-1.068 18.21 18.21 0 0 0-.603-1.387l.895-.448c.235.483.449.975.642 1.476.152.398.284.784.39 1.152.372 1.304.399 2.262-.154 2.814-.67.672-1.268.52-3.026-.303l-.335-.155c-.847-.383-1.356-.508-1.698-.394-.223.074-.298.334-.199.861a4.5 4.5 0 0 0 .218.747c.1.267.201.483.265.604zm-.929-5.591v-1h.973v1h-.973zm-4.866.972v-1h.974v1h-.974zm-7.296 5.838v-1h.973v1h-.973zm14.594 5.352v-1h.974v1h-.974zm.973 2.919v-1h.973v1h-.973zm-3.891-.487v-1h.973v1h-.973zm5.35-4.865v-1h.974v1h-.974z"/>
  <path d="M14.584 14.224l-.707-.707c1.86-1.86 2.773-3.686 2.773-5.484h1c0 2.093-1.033 4.159-3.066 6.191zm1.816 3.012l-.446-.894c2.63-1.316 6.591-1.882 10.073-1.011l-.242.97c-3.239-.81-6.958-.278-9.384.935H16.4zm-7.73-3.922l-.554-.833a9.68 9.68 0 0 0 1.014-.797c.311-.281.56-.552.721-.794.208-.311.225-.467.135-.558-.141-.14-.448-.03-1.316.549-1.321.881-1.906 1.094-2.576.424-.662-.662-.5-1.557.18-2.577.42-.63.89-1.147 1.766-2.022l.707.707c-.828.828-1.27 1.314-1.64 1.87-.446.668-.524 1.097-.306 1.315.14.14.447.03 1.315-.549 1.322-.881 1.907-1.094 2.577-.424.504.504.43 1.159-.01 1.82-.214.321-.515.648-.882.98-.356.321-.734.618-1.13.889H8.67z"/>
</svg>
