<svg xmlns="http://www.w3.org/2000/svg" width="32" height="32" viewBox="0 0 32 32">
  <path d="M28.842 16.145c0-7.012-5.684-12.696-12.696-12.696S3.45 9.133 3.45 16.145s5.684 12.696 12.696 12.696 12.696-5.684 12.696-12.696zm2.1 0c0 8.172-6.625 14.795-14.797 14.795-8.17 0-14.795-6.623-14.795-14.795S7.975 1.35 16.145 1.35c8.172 0 14.797 6.623 14.797 14.795z"/>
  <path d="M9.529 14.927a1.05 1.05 0 1 1-2.1.021 3.792 3.792 0 0 1 7.584-.07 1.05 1.05 0 1 1-2.1.02 1.692 1.692 0 1 0-3.384.03zm9.706-.273a1.05 1.05 0 1 1-2.1.018 3.792 3.792 0 0 1 7.584-.068 1.05 1.05 0 1 1-2.1.02 1.693 1.693 0 0 0-3.384.029v.001zM8.367 20.208a1.05 1.05 0 1 1 1.734-1.184c.062.092.2.274.41.518.356.414.77.828 1.24 1.215 3.094 2.553 6.533 2.584 10.476-1.689a1.05 1.05 0 1 1 1.543 1.424c-4.75 5.148-9.45 5.106-13.356 1.885-.972-.803-1.662-1.605-2.047-2.168v-.001z"/>
</svg>
