<svg xmlns="http://www.w3.org/2000/svg" width="32" height="32" viewBox="0 0 32 32">
  <path d="M15.593 6.515a.769.769 0 0 1 1.387.023l2.415 5.183a.78.78 0 0 1-.694 1.114l-5.054.022c-.584.003-.951-.619-.692-1.136l2.638-5.206zm-1.585 5.34l4.337-.018-2.073-4.45-2.264 4.469v-.001z"/>
  <path d="M13.709 11.857l4.899-.022.15.215 2.752 3.934c.539.63-.115 1.215-.815 1.216l-9.006.04c-.292 0-.567-.09-.756-.263-.284-.262-.32-.679-.089-.917l2.865-4.203zm-1.783 4.381l8.518-.036-2.355-3.364-3.85.016-2.313 3.384z"/>
  <path d="M12.677 16.235l7.001-.03.15.161 3.35 3.621c.37.323.284.808-.089 1.056-.21.14-.506.211-.826.212l-12.106.053c-.329.001-.632-.072-.845-.217-.38-.261-.436-.762-.107-1.016l3.472-3.84zm-2.342 4.072l11.732-.051-2.824-3.05-6.12.027-2.788 3.074zm12.147.397l-.03-.033a.155.155 0 0 0 .03.033zm.038-.486a.087.087 0 0 0 .011-.005l-.01.005h-.001z"/>
  <path d="M17.126 24.027l-.01-2.748-1.809.006.008 2.748 1.811-.006zm-1.806 1.008a1.002 1.002 0 0 1-1.005-.998l-.01-2.746a1.002 1.002 0 0 1 .996-1.006l1.81-.007a1 1 0 0 1 1.004.997l.012 2.745a1 1 0 0 1-.997 1.007l-1.81.008z"/>
</svg>
