<svg xmlns="http://www.w3.org/2000/svg" width="32" height="32" viewBox="0 0 32 32">
  <path d="M20.955 9.276a8.084 8.084 0 0 0-.95-.367c-.636-.201-1.22-.29-1.693-.232a2.92 2.92 0 0 0-1.24.419c-.076.043-.409.243-.504.298-.227.131-.434.24-.665.345a8.59 8.59 0 0 1-1.443.493c-1.13.287-2.06.032-2.903-.585a3.764 3.764 0 0 1-.102-.078v6.119c.333.208.862.577 1.03.679.756.456 1.476.71 2.207.71.84 0 1.21-.16 1.921-.696.732-.552 1.158-.771 1.933-.866.88-.107 1.7-.017 2.409.183V9.276zm1 6.93c0 .43-.42.758-.844.596a5.145 5.145 0 0 0-2.444-.294c-.56.068-.848.216-1.44.663-.88.664-1.44.907-2.535.907-.942 0-1.826-.313-2.723-.855-.35-.211-1.08-.727-1.081-.727a.63.63 0 0 1-.433-.606V8.789c0-.462.481-.8.913-.564.13.07.649.52.78.615.62.454 1.256.628 2.065.423.505-.128.915-.27 1.277-.435.198-.09.377-.184.577-.3.086-.05.42-.25.505-.299.53-.306.97-.465 1.62-.545.637-.077 1.353.031 2.114.271.498.157.948.348 1.301.525.22.11.348.334.348.57v7.156z"/>
  <path d="M10.955 24.693a.488.488 0 0 1-.5-.475V9.167c0-.262.224-.474.5-.474s.5.212.5.474v15.051a.488.488 0 0 1-.5.475"/>
</svg>
