<svg xmlns="http://www.w3.org/2000/svg" width="32" height="32" viewBox="0 0 32 32">
  <path d="M20.886 21.878a1.137 1.137 0 0 0 0-2.273h-9a1.137 1.137 0 0 0 0 2.273h9zm0 1h-9a2.137 2.137 0 0 1 0-4.273h9a2.137 2.137 0 1 1 0 4.273z"/>
  <path d="M12.523 19.105h-1v-1.091c0-1.921 1.997-3.5 4.932-3.5 2.919 0 4.796 1.556 4.796 3.5v1.091h-1v-1.091c0-1.346-1.392-2.5-3.796-2.5-2.428 0-3.932 1.19-3.932 2.5v1.091zm7.431 4.91c0 .024.02.045.046.045h1.091c.025 0 .045-.02.045-.045v-1.137h-1.182v1.137zm1.137 1.045h-1.09a1.045 1.045 0 0 1-1.047-1.045v-2.137h3.182v2.137c0 .577-.468 1.045-1.045 1.045zM11.5 24.015c0 .024.02.045.045.045h1.091c.026 0 .046-.02.046-.045v-1.137H11.5v1.137zm1.136 1.045h-1.09a1.045 1.045 0 0 1-1.046-1.045v-2.137h3.182v2.137c0 .577-.468 1.045-1.046 1.045z"/>
  <path d="M7.955 14.15v9.319h-1V13.15h4.09V6.06h8.364v6.773h-1V7.06h-6.363v7.09z"/>
  <path d="M24.682 11.696h-5.773v-1h6.773v12.773h-1z"/>
  <path d="M13.454 9.287h1.091V8.196h-1.091v1.091zm2.454 0H17V8.196h-1.092v1.091zm-2.454 2.455h1.091V10.65h-1.091v1.092zM9.636 16.65h1.091v-1.09H9.636v1.09zm6.272-4.908H17V10.65h-1.092v1.092zm6.274 2.454h1.091v-1.091h-1.091v1.091zm0 2.454h1.091v-1.09h-1.091v1.09zm-1.091 4.091a.545.545 0 1 0-1.09 0 .545.545 0 0 0 1.09 0zm-8.455 0a.545.545 0 1 0-1.09 0 .545.545 0 0 0 1.09 0z"/>
</svg>
