<svg xmlns="http://www.w3.org/2000/svg" width="32" height="32" viewBox="0 0 32 32">
  <path d="M18.75 10.702l2.034-2.035 3.466 3.466-2.035 2.034-3.465-3.465zm-8.501 12.283l13.93-13.863c.237-.234.221-.35-.373-.941-.596-.593-.712-.609-.949-.375L8.941 21.656l-.59 1.953 1.898-.624zm1.14 2.426l-4.636 1.523a1.34 1.34 0 0 1-1.35-.311 1.325 1.325 0 0 1-.347-1.334l1.423-4.72c.063-.21.178-.401.334-.556L20.968 5.926c1.406-1.398 3.18-1.164 4.727.374 1.545 1.538 1.78 3.305.374 4.703L11.916 25.09a1.337 1.337 0 0 1-.526.321h-.002z"/>
</svg>
