<svg xmlns="http://www.w3.org/2000/svg" width="32" height="32" viewBox="0 0 32 32">
  <path
    d="M17.46 16.014a4.876 4.876 0 0 0-.531 1.957l-3.376-3.374a6.044 6.044 0 0 0 1.594-.267c1.182-.353 2.9-1.288 7.371-5.6l.466.462c-4.083 4.448-5.087 5.947-5.524 6.822m4.772-11.658a1.215 1.215 0 1 0-1.717 1.72l.337.337c-3.233 3.138-5.408 4.88-6.515 5.212a3.137 3.137 0 0 1-.902.15c-.665 0-.993-.291-1.474-.291-.203 0-.435.052-.733.202-.834.419-1.598 1.183-2.288 2.29l3.26 3.26C9.7 20.06 4 27.679 4 27.679s7.62-5.703 10.441-8.2l3.32 3.317c1.183-.675 1.945-1.437 2.288-2.289.515-1.277-.825-1.704-.062-3.231.478-.96 2.252-3.105 5.305-6.42l.379.376a1.215 1.215 0 0 0 1.718-1.718l-5.157-5.157z"/>
</svg>
