<svg xmlns="http://www.w3.org/2000/svg" width="32" height="32" viewBox="0 0 32 32">
  <path d="M16 24a8 8 0 1 0 0-16 8 8 0 0 0 0 16zm0 1a9 9 0 1 1 0-18 9 9 0 0 1 0 18z"/>
  <path d="M10.5 14.995a.5.5 0 0 1-1 .01 2.49 2.49 0 0 1 2.478-2.505 2.491 2.491 0 0 1 2.522 2.46.5.5 0 0 1-1 .009 1.492 1.492 0 0 0-1.513-1.469 1.49 1.49 0 0 0-1.487 1.495zm8 0a.5.5 0 1 1-1 .01 2.49 2.49 0 0 1 2.478-2.505 2.491 2.491 0 0 1 2.522 2.46.5.5 0 1 1-1 .009 1.492 1.492 0 0 0-1.513-1.469 1.49 1.49 0 0 0-1.487 1.495zm-6.903 3.3a.5.5 0 0 1 .806-.59C13.285 18.908 14.468 19.5 16 19.5s2.715-.592 3.597-1.795a.5.5 0 0 1 .806.59C19.332 19.758 17.848 20.5 16 20.5c-1.848 0-3.332-.742-4.403-2.205z"/>
</svg>
