<svg xmlns="http://www.w3.org/2000/svg" width="32" height="32" viewBox="0 0 32 32">
  <g transform-origin="50% 50%" transform="scale(1.5) translate(0 -1)">
    <path d="M12.01 22.103l10.428-10.428c.177-.176.165-.263-.28-.708-.446-.446-.533-.458-.71-.282L11.031 21.103l-.441 1.469 1.42-.469zm.853 1.825l-3.47 1.145a1 1 0 0 1-1.27-1.237l1.065-3.55a1 1 0 0 1 .25-.419L20.034 9.271c1.052-1.052 2.38-.876 3.538.281 1.157 1.157 1.332 2.486.28 3.538L13.258 23.686a1 1 0 0 1-.394.242z"/>
    <path d="M17.95 12.77l1.414-1.415 2.41 2.41-1.415 1.414z"/>
  </g>
</svg>
