<svg xmlns="http://www.w3.org/2000/svg" width="32" height="32" viewBox="0 0 32 32">
  <g fill-rule="evenodd">
    <path d="M16.103 4.595v20.81H3.673c-.09 0 0-.65 0-.65s4.19-2.12 4.19-6.024v-6.185c0-4.16 2.933-7.68 8.173-7.948v20.81h12.43c.09 0 0-.65 0-.65s-4.19-2.12-4.19-6.024v-6.187c0-4.16-2.932-7.68-8.173-7.948zm-.033-.002c-.012 0-.023 0-.034.002zm-.303 25.267c1.48 0 2.688-1.166 2.688-2.59H13.08c0 1.424 1.21 2.59 2.687 2.59z"/>
    <path d="M16.103 5.24c.928 0 1.68-.726 1.68-1.62 0-.895-.752-1.62-1.68-1.62-.928 0-1.68.725-1.68 1.62 0 .894.752 1.62 1.68 1.62z"/>
  </g>
</svg>
