<svg xmlns="http://www.w3.org/2000/svg" width="32" height="32" viewBox="0 0 32 32">
  <g fill-rule="evenodd">
    <path d="M4.108 9.356c-.1 4.274 2.018 9.71 5.84 13.35 3.98 3.792 7.822 5.387 12.67 5.587l.09-2.164c-4.33-.18-7.672-1.57-11.266-4.995-3.367-3.207-5.252-8.05-5.168-11.73l-2.166-.05z"/>
    <path d="M9.5 3.64c-3.257.228-5.637 2.45-5.382 6.1.256 3.654 3.196 6.12 6.223 5.91 3.05-.214 5.318-2.476 5.07-5.968-.25-3.606-2.913-6.252-5.91-6.042zm.152 2.16c1.73-.12 3.424 1.562 3.597 4.033.152 2.225-1.146 3.52-3.06 3.655-1.85.13-3.74-1.456-3.91-3.9C6.113 7.245 7.5 5.952 9.65 5.8zm7.32 16.92c.253 3.626 3.26 5.82 6.388 5.6 2.917-.204 5.124-2.55 4.896-5.81-.23-3.28-2.613-5.512-5.6-5.558-3.35-.052-5.943 2.07-5.684 5.767zm9.122-.057c.142 2.024-1.126 3.372-2.885 3.496-2.01.14-3.916-1.25-4.08-3.595-.16-2.29 1.3-3.483 3.49-3.45 1.867.03 3.32 1.39 3.47 3.545z"/>
  </g>
</svg>
