<svg width="32" height="32" viewBox="0 0 32 32" version="1.1" xmlns="http://www.w3.org/2000/svg" xmlns:xlink="http://www.w3.org/1999/xlink">
<title>Frame</title>
<desc>Created using Figma</desc>
<g id="Canvas">
<g id="Frame">
<g id="Vector">
<use xlink:href="#path0_fill" transform="translate(4 4)"/>
</g>
</g>
</g>
<defs>
<path id="path0_fill" d="M 23.6041 6.87345L 16.912 0.181368C 16.6705 -0.060456 16.2782 -0.060456 16.0366 0.181368L 16.0083 0.209723C 15.5979 0.619945 15.3718 1.16563 15.3718 1.74586C 15.3718 2.11968 15.4668 2.47839 15.6432 2.79649L 8.64111 8.80594C 8.10521 8.32699 7.42121 8.06486 6.69673 8.06486C 5.91603 8.06486 5.18214 8.36884 4.63027 8.92084L 4.58829 8.96282C 4.34647 9.20452 4.34647 9.59654 4.58829 9.83824L 8.5974 13.8473L 4.6928 17.7518C 4.61467 17.8322 2.7665 19.7367 1.55144 21.2523C 0.39432 22.6952 0.165497 22.9595 0.15361 22.9731C -0.061221 23.2178 -0.0493341 23.5868 0.180603 23.8179C 0.301082 23.9388 0.459946 24 0.619304 24C 0.764547 24 0.910162 23.9492 1.0273 23.8468C 1.03757 23.8379 1.29587 23.6134 2.74817 22.449C 4.26351 21.2339 6.16801 19.3857 6.25456 19.3013L 10.1528 15.403L 13.9472 19.1974C 14.0681 19.3184 14.2266 19.3788 14.385 19.3788C 14.5433 19.3788 14.7019 19.3184 14.8227 19.1974L 14.8646 19.1555C 15.4166 18.6036 15.7206 17.8696 15.7206 17.089C 15.7206 16.3645 15.4584 15.6805 14.9796 15.1446L 20.989 8.1425C 21.3071 8.31894 21.6658 8.41392 22.0396 8.41392C 22.62 8.41392 23.1655 8.18794 23.5758 7.77747L 23.6041 7.74912C 23.8459 7.50717 23.8459 7.11515 23.6041 6.87345Z"/>
</defs>
</svg>
