<svg xmlns="http://www.w3.org/2000/svg" width="32" height="32" viewBox="0 0 32 32">
  <path fill-rule="evenodd" d="M18.655 9.247L25.367 16l-6.712 6.753V19.36c0-.606-.488-1.097-1.09-1.097-.468 0-.86-.002-1.625-.01-3.526-.03-5.857.104-7.626.71 2.16-3.595 4.305-4.62 9.404-5.353.538-.077.937-.54.937-1.086V9.247zM4.108 22.47c-.545 1.208 1.113 2.17 1.88 1.09 1.94-2.732 3.696-3.168 9.933-3.113l.556.005v4.95c0 .976 1.174 1.466 1.86.775l9.347-9.4c.426-.43.426-1.124 0-1.553l-9.345-9.4c-.687-.692-1.86-.202-1.86.775v4.98C9.625 12.71 7.535 14.875 4.11 22.47z"/>
</svg>
