<svg xmlns="http://www.w3.org/2000/svg" width="32" height="32" viewBox="0 0 32 32">
  <path d="M18.655,9.247 L25.367,16 L18.655,22.753 L18.655,19.36 C18.655,18.754 18.167,18.263 17.565,18.263 C17.097,18.263 16.705,18.261 15.94,18.253 C12.414,18.223 10.083,18.357 8.314,18.963 C10.474,15.368 12.619,14.343 17.718,13.61 C18.256,13.533 18.655,13.07 18.655,12.524 L18.655,9.247 Z M4.108,22.47 C3.563,23.678 5.221,24.64 5.988,23.56 C7.928,20.828 9.684,20.392 15.921,20.447 L16.477,20.452 L16.477,25.402 C16.477,26.378 17.651,26.868 18.337,26.177 L27.684,16.777 C28.11,16.347 28.11,15.653 27.684,15.224 L18.339,5.824 C17.652,5.132 16.479,5.622 16.479,6.599 L16.479,11.579 C9.625,12.71 7.535,14.875 4.11,22.47 L4.108,22.47 Z" id="Shape" transform="translate(16.001797, 16.000172) scale(-1, 1) translate(-16.001797, -16.000172)" />
</svg>
