<svg xmlns="http://www.w3.org/2000/svg" width="32" height="32" viewBox="0 0 32 32">
  <g fill-rule="evenodd" transform="translate(2 2)">
    <path d="M14 26.2c6.738 0 12.2-5.462 12.2-12.2 0-6.738-5.462-12.2-12.2-12.2C7.262 1.8 1.8 7.262 1.8 14c0 6.738 5.462 12.2 12.2 12.2zm0 1.8C6.268 28 0 21.732 0 14S6.268 0 14 0s14 6.268 14 14-6.268 14-14 14z"/>
    <rect width="2.5" height="10" x="12.5" y="6" rx="1.25"/>
    <rect width="2.5" height="9" x="15.75" y="10.75" transform="rotate(90 17 15.25)" rx="1.25"/>
  </g>
</svg>
