<svg xmlns="http://www.w3.org/2000/svg" width="32" height="32" viewBox="0 0 32 32">
  <g fill-rule="evenodd">
    <path d="M16 28.2c6.738 0 12.2-5.462 12.2-12.2 0-6.738-5.462-12.2-12.2-12.2C9.262 3.8 3.8 9.262 3.8 16c0 6.738 5.462 12.2 12.2 12.2zm0 1.8C8.268 30 2 23.732 2 16S8.268 2 16 2s14 6.268 14 14-6.268 14-14 14z"/>
    <path d="M17 16V9.246C17 8.566 16.44 8 15.75 8c-.695 0-1.25.558-1.25 1.246v7.508c0 .084.01.167.025.247-.016.08-.025.167-.025.25 0 .697.56 1.25 1.25 1.25h6.5c.687 0 1.25-.56 1.25-1.25 0-.693-.56-1.25-1.25-1.25H17z"/>
  </g>
</svg>
