<svg viewBox="-4 7 28 8" xmlns="http://www.w3.org/2000/svg">
  <path d="M19.434 19.103c-.62-.254-1.13-.654-1.092-1.42.036-.765-.547-1.272-.547-1.272s.51-1.674.036-3.057c-.472-1.385-2.037-3.604-3.238-5.278-1.2-1.675-.18-3.605-1.272-6.08C12.227-.477 9.39-.332 7.86.724c-1.53 1.054-1.057 3.674-.985 4.914.073 1.236.033 2.117-.108 2.437-.144.32-1.128 1.494-1.784 2.476-.655.982-1.128 3.02-1.603 3.858-.473.837-.145 1.6-.145 1.6s-.328.11-.583.658c-.255.544-.764.8-1.674.98-.91.18-.91.766-.692 1.42.22.655 0 1.02-.254 1.856s1.02 1.092 2.256 1.235c1.238.147 2.62.948 3.787 1.093 1.163.146 1.528-.8 1.528-.8s1.31-.293 2.692-.327c1.384-.037 2.692.29 2.692.29s.255.583.728.837c.474.255 1.493.292 2.148-.398.656-.693 2.403-1.565 3.385-2.112.985-.548.805-1.384.186-1.637zm-8.518-16.05c.624 0 1.128.618 1.128 1.38 0 .543-.253 1.01-.622 1.237l-.298-.128c.222-.11.38-.393.38-.723 0-.43-.266-.78-.595-.78-.326 0-.593.35-.593.78 0 .158.038.31.103.436-.194-.077-.373-.15-.513-.202-.076-.186-.12-.396-.12-.62 0-.763.505-1.382 1.13-1.382zm-.08 2.913c.31.108.658.31.622.512-.037.202-.2.202-.623.46-.423.256-1.34.824-1.632.86-.295.038-.46-.127-.77-.328-.313-.202-.9-.68-.752-.936 0 0 .458-.35.66-.533.2-.183.715-.622 1.027-.565.312.053 1.156.42 1.468.53zM8.02 3.27c.492 0 .892.587.892 1.31 0 .133-.013.256-.038.375-.12.04-.242.107-.36.207-.06.05-.113.095-.164.14.078-.145.11-.353.074-.572-.066-.395-.33-.683-.59-.642-.26.045-.417.4-.35.797.066.397.328.685.588.642.015-.003.03-.007.044-.012-.127.122-.244.227-.363.316-.36-.166-.624-.663-.624-1.25 0-.724.4-1.31.892-1.31zm-.96 18.392c-.117.522-.728.9-.728.9-.554.175-2.094-.493-2.792-.786-.697-.29-2.472-.38-2.705-.637-.23-.265.116-.846.205-1.397.086-.555-.174-.902-.088-1.28.088-.378 1.222-.378 1.657-.64.438-.262.525-1.018.874-1.22.35-.206.988.52 1.25.93.26.405 1.25 2.15 1.657 2.587.41.436.787 1.02.67 1.542zm6.436-5.072c-.105.513-.105 2.367-.105 2.367s-1.128 1.563-2.877 1.82c-1.747.255-2.62.07-2.62.07l-.983-1.126s.763-.11.655-.874c-.11-.764-2.33-1.82-2.73-2.767-.4-.946-.072-2.55.438-3.35.51-.8.835-2.546 1.345-3.13.51-.58.91-1.818.728-2.365 0 0 1.092 1.31 1.855 1.094.764-.22 2.477-1.495 2.73-1.275.254.22 2.438 5.022 2.655 6.55.22 1.53-.146 2.693-.146 2.693s-.836-.218-.944.292zm5.586 3.43c-.34.31-2.232 1.075-2.8 1.67-.563.592-1.3 1.073-1.75.933-.455-.143-.85-.764-.652-1.67.197-.903.368-1.893.34-2.46s-.143-1.33 0-1.443c.14-.11.366-.055.366-.055s-.11 1.073.538 1.358c.65.28 1.583-.113 1.866-.398.284-.28.482-.705.482-.705s.282.143.254.594c-.028.452.197 1.104.623 1.33.424.222 1.074.535.734.845z" />
</svg>
